<!DOCTYPE svg PUBLIC "-//W3C//DTD SVG 20010904//EN" "http://www.w3.org/TR/2001/REC-SVG-20010904/DTD/svg10.dtd">
<svg version="1.0" xmlns="http://www.w3.org/2000/svg" width="1920px" height="192px" viewBox="0 0 12000 1200" preserveAspectRatio="xMidYMid meet">
<g id="layer101" fill="#9f2b0d" stroke="none">
<path d="M0 600 l0 -600 6000 0 6000 0 0 600 0 600 -6000 0 -6000 0 0 -600z"/>
</g>
<g id="layer102" fill="#336991" stroke="none">
<path d="M0 800 l0 -400 201 0 201 0 -6 -47 c-25 -174 -160 -318 -326 -346 -14 -2 955 -5 2153 -6 l2177 -1 0 401 0 401 48 -6 c147 -21 270 -117 327 -256 16 -39 19 -81 23 -293 l4 -247 599 0 599 0 0 199 0 198 63 10 c88 15 152 48 217 113 58 58 95 124 110 194 6 26 8 -40 6 -184 -3 -251 -7 -271 -77 -366 -58 -79 -157 -141 -249 -157 -14 -2 865 -5 1953 -6 l1977 -1 0 401 0 401 48 -6 c149 -22 275 -122 328 -261 25 -68 25 -202 0 -270 -49 -129 -175 -236 -306 -258 -14 -2 415 -5 953 -6 l978 -1 -3 447 c-3 413 -5 451 -22 493 -43 102 -134 192 -236 236 -44 18 -105 19 -2292 22 l-2248 2 0 -200 0 -200 -200 0 -200 0 0 200 0 200 -3400 0 -3400 0 0 -400z m11200 175 l0 -175 -177 1 c-121 1 -165 4 -137 9 141 28 284 172 302 303 2 20 6 37 8 37 2 0 4 -79 4 -175z m-2393 -238 c15 -88 48 -152 113 -217 58 -58 125 -96 194 -110 24 -4 -114 -8 -338 -9 l-378 -1 6 48 c28 192 183 338 372 351 18 1 22 -7 31 -62z"/>
</g>
<g id="layer103" fill="#2a8888" stroke="none">
<path d="M1 1023 c1 -98 4 -167 6 -153 26 155 168 297 323 323 14 2 -55 5 -152 6 l-178 1 1 -177z"/>
<path d="M470 1193 c92 -16 196 -81 252 -160 68 -95 70 -107 78 -433 7 -309 10 -330 59 -410 52 -85 163 -161 262 -180 32 -6 587 -10 1504 -10 l1452 0 54 22 c122 50 198 124 242 235 27 68 27 71 27 307 l0 238 53 -7 c107 -15 206 -74 269 -162 50 -69 68 -125 74 -222 12 -195 98 -317 277 -391 46 -19 71 -20 488 -20 l439 0 0 199 0 199 48 6 c173 25 317 160 345 326 2 14 5 -61 6 -166 0 -105 -3 -214 -9 -242 -28 -149 -159 -283 -304 -312 -28 -5 16 -8 137 -9 l177 -1 1 158 c0 123 3 152 11 132 70 -158 123 -213 257 -268 29 -12 71 -22 91 -22 l38 0 7 52 c19 138 109 254 244 316 55 26 62 26 305 30 l248 4 -7 -54 c-23 -163 -156 -307 -315 -339 -19 -4 135 -7 343 -8 l377 -1 1 158 c0 123 3 152 11 132 70 -158 123 -213 257 -268 53 -22 63 -22 531 -22 468 0 478 0 531 22 172 70 260 196 272 389 8 116 41 191 118 268 121 122 299 153 455 79 62 -29 154 -120 183 -183 50 -107 50 -243 0 -350 -46 -98 -168 -194 -273 -215 -23 -4 211 -8 537 -9 l577 -1 1 178 c1 125 4 164 10 134 28 -144 161 -274 310 -302 76 -15 76 -15 83 38 27 184 164 321 349 348 l49 7 -4 246 c-5 274 -8 291 -79 387 -64 87 -160 144 -271 160 l-48 6 0 -240 c0 -223 1 -243 22 -293 29 -72 58 -117 104 -161 34 -32 64 -50 164 -96 20 -9 -18 -11 -180 -9 -196 3 -208 4 -261 29 -135 62 -225 178 -244 316 l-7 52 -176 1 c-98 1 -166 4 -152 6 166 28 301 172 326 346 l6 47 -401 0 -401 0 0 -201 0 -201 -47 6 c-111 16 -213 76 -275 163 -37 51 -68 125 -68 161 0 12 -4 22 -10 22 -5 0 -10 -10 -10 -22 0 -70 -74 -188 -154 -247 -96 -71 -112 -74 -388 -79 l-248 -4 -1 179 c-1 98 -4 167 -6 153 -28 -166 -172 -301 -345 -326 l-48 -6 0 201 0 201 -200 0 -200 0 1 -377 c1 -208 4 -367 6 -353 14 91 77 190 157 249 60 45 112 66 182 76 l51 7 7 -49 c25 -174 160 -318 326 -346 14 -2 -235 -5 -552 -6 l-578 -1 0 200 c0 162 -3 200 -14 200 -39 0 -124 -23 -169 -46 -99 -49 -192 -170 -204 -265 -7 -50 -19 -50 -26 0 -17 130 -168 281 -299 299 l-39 5 50 18 c92 32 143 63 195 119 57 62 106 169 106 233 l0 37 -200 0 -200 0 0 -200 0 -200 -200 0 -200 0 0 200 0 200 -199 0 -199 0 -7 -52 c-24 -174 -169 -319 -342 -343 l-53 -7 0 38 c0 21 -12 70 -27 109 -38 99 -129 190 -228 228 -140 54 -298 26 -407 -72 -77 -69 -138 -185 -138 -261 l0 -38 248 -4 c211 -4 253 -7 292 -23 139 -57 235 -180 256 -328 l6 -47 -399 0 -400 0 -11 64 c-28 171 -158 300 -328 328 l-65 11 7 51 c22 161 156 305 314 337 19 4 -1025 7 -2320 6 -1295 0 -2344 -2 -2330 -4z"/>
<path d="M7680 1191 c90 -19 175 -74 244 -161 26 -33 66 -126 66 -155 0 -14 5 -25 10 -25 6 0 10 11 10 25 0 29 40 122 66 155 69 87 154 142 244 161 19 4 -125 7 -320 7 -195 0 -339 -3 -320 -7z"/>
<path d="M393 337 c-15 -88 -48 -152 -113 -217 -58 -58 -125 -96 -194 -110 -24 -4 113 -8 337 -9 312 -1 377 1 377 13 0 7 -4 37 -10 65 -29 153 -158 282 -311 311 -77 15 -75 16 -86 -53z"/>
</g>
<g id="layer104" fill="#f8f8f8" stroke="none">
<path d="M1 1023 c1 -98 4 -167 6 -153 26 155 170 299 323 323 14 2 -55 5 -152 6 l-178 1 1 -177z"/>
<path d="M470 1193 c91 -14 195 -80 252 -160 69 -95 71 -107 78 -433 8 -328 10 -339 81 -436 44 -60 113 -113 184 -140 49 -18 93 -19 1535 -19 1438 0 1487 1 1535 19 104 40 197 131 240 236 17 39 20 79 23 293 l4 249 51 -7 c107 -15 206 -75 269 -162 49 -67 65 -115 78 -229 6 -54 18 -119 27 -144 36 -98 130 -193 233 -235 38 -15 79 -19 270 -21 124 -1 214 0 200 2 -133 26 -258 130 -303 254 -9 25 -21 90 -27 144 -13 114 -29 162 -78 229 -63 88 -162 147 -270 162 l-54 7 7 47 c24 172 162 318 325 344 14 2 -145 5 -352 6 l-378 1 0 -33 c0 -56 -28 -130 -70 -189 -191 -268 -598 -206 -703 106 -10 27 -17 65 -17 83 l0 33 -199 0 c-199 0 -200 0 -204 -22 l-4 -23 -2 23 -1 22 -1377 -1 c-758 -1 -1367 -4 -1353 -6z"/>
<path d="M5530 1194 c-168 -31 -301 -173 -325 -346 l-7 -46 249 -4 c277 -4 293 -8 389 -79 88 -65 144 -159 159 -265 l7 -52 -54 -7 c-180 -25 -318 -164 -344 -347 l-6 -48 201 0 201 0 0 199 0 199 48 6 c173 25 317 160 345 326 2 14 5 -61 6 -166 0 -105 -3 -214 -9 -242 -28 -149 -159 -283 -304 -312 -28 -5 16 -8 137 -9 l177 -1 1 178 c1 97 4 166 6 152 28 -165 172 -301 344 -325 l46 -7 7 49 c16 112 72 207 160 272 96 71 112 75 390 79 l248 4 -7 -54 c-10 -70 -31 -123 -73 -181 -57 -79 -160 -144 -252 -160 -14 -2 145 -5 353 -6 l377 -1 1 178 c1 97 4 166 6 152 22 -128 124 -252 253 -305 38 -16 81 -19 291 -23 l246 -4 7 49 c16 111 76 212 163 275 58 42 111 63 181 73 l52 7 0 -202 0 -202 48 6 c110 16 211 76 274 163 49 67 65 115 78 229 6 54 18 119 27 144 36 97 133 196 229 233 96 37 223 31 320 -15 97 -45 193 -167 214 -272 5 -28 8 15 9 135 l1 177 -47 6 c-111 16 -213 76 -275 163 -37 51 -68 125 -68 161 0 12 -4 22 -10 22 -5 0 -10 -11 -10 -25 0 -68 -73 -185 -154 -244 -96 -71 -112 -74 -388 -79 l-248 -4 -1 179 c-1 98 -4 167 -6 153 -26 -164 -172 -301 -346 -326 l-49 -7 7 -46 c24 -172 160 -316 325 -344 14 -2 -235 -5 -552 -6 l-578 -1 0 201 0 201 -52 -7 c-72 -10 -124 -31 -184 -76 -80 -59 -154 -177 -154 -247 0 -36 -17 -25 -22 16 -18 130 -170 282 -300 300 -41 5 -52 22 -16 22 38 0 111 31 164 71 88 65 144 159 159 267 l7 52 -200 0 -200 0 -4 -247 c-3 -213 -7 -254 -22 -293 -42 -101 -134 -193 -236 -235 -38 -16 -78 -19 -270 -21 -124 -1 -214 0 -200 2 95 18 195 82 252 161 54 74 73 135 73 233 0 59 -6 100 -19 135 -52 138 -179 240 -322 260 l-52 7 -7 -54 c-24 -179 -164 -318 -346 -343 l-47 -7 -7 54 c-4 29 -14 71 -23 93 -35 93 -134 191 -230 229 -44 17 -166 28 -212 20z"/>
<path d="M7686 1190 c141 -28 284 -172 302 -302 5 -41 22 -52 22 -16 0 38 31 111 71 164 59 80 158 143 249 157 14 2 -135 4 -330 5 -208 0 -338 -4 -314 -8z"/>
<path d="M8401 823 c1 -224 5 -361 9 -337 28 141 163 276 304 304 30 6 -2 8 -114 10 -85 2 -144 5 -130 7 92 16 195 81 252 160 42 58 63 111 73 181 l7 52 -201 0 -201 0 1 -377z"/>
<path d="M10401 1023 c1 -98 4 -167 6 -153 26 155 170 299 323 323 14 2 -55 5 -152 6 l-178 1 1 -177z"/>
<path d="M10802 953 c4 -212 7 -254 23 -293 57 -138 180 -235 327 -255 46 -7 46 -7 53 -53 25 -183 164 -322 346 -347 l46 -7 7 49 c16 111 76 212 163 275 58 42 111 63 181 73 l54 7 -4 247 c-4 210 -7 252 -23 291 -57 139 -180 235 -328 256 l-49 7 4 -249 c5 -278 8 -294 79 -390 58 -79 154 -139 249 -158 14 -2 -76 -3 -200 -2 -252 3 -271 7 -366 77 -87 64 -144 160 -160 272 l-6 47 -177 1 c-97 1 -165 4 -151 6 166 28 301 172 326 346 l6 47 -202 0 -202 0 4 -247z"/>
<path d="M1 578 l-1 -178 178 1 c97 1 166 4 152 6 -155 26 -297 168 -323 323 -2 14 -5 -55 -6 -152z"/>
<path d="M393 338 c-15 -89 -48 -153 -113 -218 -58 -58 -125 -96 -194 -110 -24 -4 114 -8 337 -9 l379 -1 -7 52 c-24 178 -165 319 -341 343 l-51 6 -10 -63z"/>
<path d="M10393 338 c-15 -89 -48 -153 -113 -218 -58 -58 -125 -96 -194 -110 -24 -4 114 -8 337 -9 l379 -1 -7 52 c-24 178 -165 319 -341 343 l-51 6 -10 -63z"/>
</g>


</svg>